<svg width="101" height="103" viewBox="0 0 101 103" fill="none" xmlns="http://www.w3.org/2000/svg">
<ellipse rx="38.7195" ry="34.9663" transform="matrix(1.00002 -0.000370864 -0.000442961 0.99998 50.4459 58.6745)" fill="white"/>
<path d="M47.8554 22.3821C42.4257 22.8304 38.1669 23.8722 33.7425 25.8389C29.0872 27.9039 25.0032 30.7579 21.537 34.3511C14.3627 41.811 11.0358 51.6218 12.3419 61.5619C12.8968 65.7885 14.4604 70.2904 16.6309 73.8793C18.9009 77.6275 21.4642 80.5604 25.0301 83.4681C30.9217 88.2637 38.3484 91.2777 46.3216 92.0934C48.1863 92.2921 52.4707 92.3435 54.0446 92.1977C63.2208 91.346 71.2641 87.9734 77.5924 82.3257C83.9579 76.6449 87.7521 69.7166 88.9378 61.599C89.1647 60.0739 89.2377 55.5937 89.0695 54.0486C88.4038 48.0521 86.1798 42.4769 82.5054 37.5825C79.5749 33.6787 75.2636 29.9222 71.0207 27.5765C69.6126 26.7974 67.1875 25.6429 65.8779 25.1233C62.8372 23.9221 59.2508 23.0419 55.4397 22.5604C54.0989 22.391 49.1622 22.2759 47.8554 22.3821ZM54.2792 24.562C56.9984 24.8176 59.045 25.2014 61.5207 25.8973C72.2666 28.9467 81.0802 36.6614 84.7899 46.2539C86.376 50.347 87.0357 54.2074 86.864 58.4532C86.7548 61.064 86.411 63.2307 85.7055 65.7032C83.6373 72.8874 78.8183 79.315 72.134 83.7917C68.4122 86.2898 63.7299 88.2961 59.4631 89.2211C54.0167 90.4119 48.9581 90.5294 43.5884 89.593C35.0611 88.1053 27.2165 83.6694 21.8193 77.2841C14.9321 69.1093 12.6757 58.5691 15.6831 48.5304C18.1766 40.2065 24.5498 32.8486 32.9885 28.5614C36.815 26.6148 41.0304 25.3223 45.4132 24.7404C48.1385 24.387 51.6427 24.3153 54.2792 24.562Z" fill="black"/>
<path d="M44.1347 49.3035L43.936 68.9107L50.602 68.9648L57.268 69.0188L57.4667 49.4117L57.6653 29.8045L50.9993 29.7504L44.3333 29.6964L44.1347 49.3035ZM56.5472 49.4042L56.3562 68.2605L50.5637 68.2135L44.7711 68.1665L44.9622 49.3102L45.1532 30.454L50.9457 30.501L56.7382 30.548L56.5472 49.4042Z" fill="black"/>
<path d="M46.4146 33.0092L46.4023 34.219L50.9536 34.2559L55.5141 34.2929L55.4986 33.0996L55.483 31.9146L50.9596 31.8529L46.4269 31.7994L46.4146 33.0092Z" fill="black"/>
<path d="M46.3849 35.9461L46.3809 36.3466L50.8587 36.3662C53.3322 36.3696 55.3827 36.3779 55.4194 36.3782C55.4654 36.3786 55.4854 36.2202 55.469 36.0198L55.445 35.6692L50.9216 35.6074L46.3889 35.554L46.3849 35.9461Z" fill="black"/>
<path d="M46.2475 49.4875L46.1284 61.2435L50.4774 61.2787C52.8588 61.2981 54.9093 61.298 55.0291 61.2739L55.2319 61.2255L55.3505 49.5113L55.4692 37.7971L50.9179 37.7601L46.3667 37.7232L46.2475 49.4875ZM52.4222 48.1191C52.8539 48.1643 53.4783 48.2528 53.8271 48.3057L54.4422 48.4108L54.4322 49.3954C54.4206 50.5384 54.5691 50.4061 53.0592 50.5858C51.7428 50.7336 49.6373 50.7166 48.416 50.5481C46.901 50.3356 47.065 50.4788 47.0766 49.3357L47.0866 48.3512L47.7588 48.2565C49.4072 48.0112 51.0628 47.9662 52.4222 48.1191Z" fill="black"/>
<path d="M46.1113 62.9205L46.1079 63.2543L50.641 63.2743L55.1649 63.286L55.1957 62.9692L55.2264 62.6607L50.6751 62.6238L46.1147 62.5868L46.1113 62.9205Z" fill="black"/>
<path d="M46.0832 65.7156L46.0718 66.842L50.623 66.8789L55.1835 66.9159L55.1672 65.806L55.1507 64.7044L50.6273 64.6427L46.0946 64.5892L46.0832 65.7156Z" fill="black"/>
<path d="M34.4011 37.0755C33.0997 37.5572 29.8152 40.451 28.0364 42.6728C22.4204 49.7115 21.241 59.0307 24.9386 67.0877C27.1878 71.9873 31.2639 76.2675 36.3207 79.0454C36.9516 79.3926 38.9468 80.3183 39.6521 80.5911C42.8761 81.8438 46.5105 82.5325 50.0503 82.5612C54.3717 82.5962 57.7341 81.9893 61.6206 80.4855C64.7408 79.2759 67.3409 77.6699 69.9855 75.3049C72.1011 73.4196 73.4878 71.7871 74.7689 69.678C77.3405 65.435 78.498 61.0137 78.2695 56.3391C78.0176 51.2471 76.1987 46.5346 72.9565 42.5365C71.5489 40.7979 69.3083 38.677 67.9199 37.7645C66.8329 37.0465 65.6111 36.9364 64.4566 37.4361C63.3298 37.9276 62.667 38.9151 62.6829 40.0668C62.6894 41.235 62.9885 41.6713 64.8037 43.1129C67.9143 45.5829 70.3135 49.2822 71.2682 53.0698C71.6751 54.6585 71.784 55.7108 71.7651 57.5797C71.7467 59.3902 71.6165 60.4405 71.2152 61.9309C69.4946 68.392 64.0894 73.6884 57.1446 75.7348C54.7467 76.4413 52.8774 76.7015 50.3399 76.6726C47.7011 76.6428 45.9384 76.3698 43.5462 75.6078C35.9111 73.1845 30.4563 67.0323 29.4456 59.698C29.2916 58.5619 29.3184 55.9087 29.4954 54.7753C29.8392 52.6087 30.4928 50.7198 31.5887 48.7428C33.0028 46.2093 34.4352 44.6022 37.4202 42.2149C38.4956 41.3558 38.7482 40.924 38.7589 39.8727C38.7654 39.2303 38.7304 39.0548 38.523 38.6442C37.9823 37.5634 36.9953 36.963 35.6625 36.9105C35.0559 36.8805 34.8349 36.9121 34.4011 37.0755Z" fill="black"/>
</svg>
